<svg xmlns="http://www.w3.org/2000/svg" xmlns:v="https://svgstorm.com"
viewBox = "0 0 1080 1080"
width="1080"
height="1080">
<g fill="None" fill-opacity="0.0" stroke="#FFFFFE" stroke-opacity="1.00" stroke-width="0.3"><path d="
M 0.00 1080.00 
L 1080.00 1080.00
L 1080.00 0.00
L 0.00 0.00
L 0.00 1080.00
M 561.00 295.00 
C 572.26 297.73 582.62 303.16 593.23 307.77 C 603.84 312.38 615.16 315.61 625.68 320.32 C 636.20 325.04 647.18 328.96 657.68 333.32 C 668.17 337.68 679.45 341.39 689.69 346.31 C 699.94 351.22 713.07 353.53 722.68 359.32 C 732.29 365.11 749.28 363.60 750.00 377.00 C 750.72 390.40 749.65 407.77 750.00 422.00 C 750.35 436.23 749.79 452.47 750.00 467.00 C 750.21 481.53 749.78 497.47 750.00 512.00 C 750.22 526.53 749.63 543.89 750.00 558.00 C 750.37 572.11 750.17 587.61 746.69 599.69 C 743.22 611.78 740.07 621.35 732.70 630.70 C 725.33 640.05 719.41 646.07 710.25 653.25 C 701.09 660.43 691.24 664.37 679.93 667.93 C 668.61 671.49 650.12 672.01 638.33 669.67 C 626.54 667.33 615.87 663.15 605.92 657.08 C 595.98 651.00 589.59 645.04 582.25 635.75 C 574.90 626.46 570.17 618.80 566.07 606.93 C 561.97 595.05 560.49 581.13 561.00 567.00 C 561.51 552.87 560.76 535.65 561.00 521.00 C 561.24 506.35 560.89 490.85 561.00 476.00 C 561.11 461.15 560.95 445.96 561.00 431.00 C 561.05 416.04 560.98 401.03 561.00 386.00 C 561.02 370.97 560.99 356.12 561.00 341.00 C 561.01 325.88 560.99 310.17 561.00 295.00 Z"/>
</g>
<g fill="None" fill-opacity="0.0" stroke="#EDAE03" stroke-opacity="1.00" stroke-width="0.3"><path d="
M 561.00 295.00 
C 560.99 310.17 561.01 325.88 561.00 341.00 C 560.99 356.12 561.02 370.97 561.00 386.00 C 560.98 401.03 561.05 416.04 561.00 431.00 C 560.95 445.96 561.11 461.15 561.00 476.00 C 560.89 490.85 561.24 506.35 561.00 521.00 C 560.76 535.65 561.51 552.87 561.00 567.00 C 560.49 581.13 561.97 595.05 566.07 606.93 C 570.17 618.80 574.90 626.46 582.25 635.75 C 589.59 645.04 595.98 651.00 605.92 657.08 C 615.87 663.15 626.54 667.33 638.33 669.67 C 650.12 672.01 668.61 671.49 679.93 667.93 C 691.24 664.37 701.09 660.43 710.25 653.25 C 719.41 646.07 725.33 640.05 732.70 630.70 C 740.07 621.35 743.22 611.78 746.69 599.69 C 750.17 587.61 750.37 572.11 750.00 558.00 C 749.63 543.89 750.22 526.53 750.00 512.00 C 749.78 497.47 750.21 481.53 750.00 467.00 C 749.79 452.47 750.35 436.23 750.00 422.00 C 749.65 407.77 750.72 390.40 750.00 377.00 C 749.28 363.60 732.29 365.11 722.68 359.32 C 713.07 353.53 699.94 351.22 689.69 346.31 C 679.45 341.39 668.17 337.68 657.68 333.32 C 647.18 328.96 636.20 325.04 625.68 320.32 C 615.16 315.61 603.84 312.38 593.23 307.77 C 582.62 303.16 572.26 297.73 561.00 295.00 Z"/>
</g>
<g fill="#FFFFFE" fill-opacity="1.00" stroke="None">
<path d="
M 0.00 1080.00 
L 1080.00 1080.00
L 1080.00 0.00
L 0.00 0.00
L 0.00 1080.00
M 561.00 295.00 
C 572.26 297.73 582.62 303.16 593.23 307.77 C 603.84 312.38 615.16 315.61 625.68 320.32 C 636.20 325.04 647.18 328.96 657.68 333.32 C 668.17 337.68 679.45 341.39 689.69 346.31 C 699.94 351.22 713.07 353.53 722.68 359.32 C 732.29 365.11 749.28 363.60 750.00 377.00 C 750.72 390.40 749.65 407.77 750.00 422.00 C 750.35 436.23 749.79 452.47 750.00 467.00 C 750.21 481.53 749.78 497.47 750.00 512.00 C 750.22 526.53 749.63 543.89 750.00 558.00 C 750.37 572.11 750.17 587.61 746.69 599.69 C 743.22 611.78 740.07 621.35 732.70 630.70 C 725.33 640.05 719.41 646.07 710.25 653.25 C 701.09 660.43 691.24 664.37 679.93 667.93 C 668.61 671.49 650.12 672.01 638.33 669.67 C 626.54 667.33 615.87 663.15 605.92 657.08 C 595.98 651.00 589.59 645.04 582.25 635.75 C 574.90 626.46 570.17 618.80 566.07 606.93 C 561.97 595.05 560.49 581.13 561.00 567.00 C 561.51 552.87 560.76 535.65 561.00 521.00 C 561.24 506.35 560.89 490.85 561.00 476.00 C 561.11 461.15 560.95 445.96 561.00 431.00 C 561.05 416.04 560.98 401.03 561.00 386.00 C 561.02 370.97 560.99 356.12 561.00 341.00 C 561.01 325.88 560.99 310.17 561.00 295.00 Z"/>
</g>
<g fill="#EDAE03" fill-opacity="1.00" stroke="None">
<path d="
M 561.00 295.00 
C 560.99 310.17 561.01 325.88 561.00 341.00 C 560.99 356.12 561.02 370.97 561.00 386.00 C 560.98 401.03 561.05 416.04 561.00 431.00 C 560.95 445.96 561.11 461.15 561.00 476.00 C 560.89 490.85 561.24 506.35 561.00 521.00 C 560.76 535.65 561.51 552.87 561.00 567.00 C 560.49 581.13 561.97 595.05 566.07 606.93 C 570.17 618.80 574.90 626.46 582.25 635.75 C 589.59 645.04 595.98 651.00 605.92 657.08 C 615.87 663.15 626.54 667.33 638.33 669.67 C 650.12 672.01 668.61 671.49 679.93 667.93 C 691.24 664.37 701.09 660.43 710.25 653.25 C 719.41 646.07 725.33 640.05 732.70 630.70 C 740.07 621.35 743.22 611.78 746.69 599.69 C 750.17 587.61 750.37 572.11 750.00 558.00 C 749.63 543.89 750.22 526.53 750.00 512.00 C 749.78 497.47 750.21 481.53 750.00 467.00 C 749.79 452.47 750.35 436.23 750.00 422.00 C 749.65 407.77 750.72 390.40 750.00 377.00 C 749.28 363.60 732.29 365.11 722.68 359.32 C 713.07 353.53 699.94 351.22 689.69 346.31 C 679.45 341.39 668.17 337.68 657.68 333.32 C 647.18 328.96 636.20 325.04 625.68 320.32 C 615.16 315.61 603.84 312.38 593.23 307.77 C 582.62 303.16 572.26 297.73 561.00 295.00 Z"/>
</g>
</svg>